<svg width="1193" height="624" viewBox="0 0 1193 624" fill="none" xmlns="http://www.w3.org/2000/svg">
<path d="M407.839 98.5156C353.646 119.669 304.405 150.674 262.927 189.761C221.45 228.848 188.548 275.25 166.101 326.319C143.653 377.388 132.1 432.124 132.1 487.401" stroke="#34C759" stroke-width="125.382" stroke-linejoin="round" stroke-dasharray="29.85 29.85"/>
<path d="M422.419 93.2711C454.526 81.2555 488.075 72.6347 522.487 67.6681C611.25 54.8571 701.979 66.9045 783.787 102.365C865.595 137.825 935.008 195.192 983.698 267.584C1032.39 339.975 1058.29 424.315 1058.29 510.485" stroke="#8E1C1C" stroke-width="125.382" stroke-dasharray="29.85 29.85"/>
<rect x="20.5205" y="534.367" width="269.799" height="76.1249" rx="38.0625" fill="#005645"/>
<path d="M110.842 561.259V576.773C110.842 578.642 110.481 580.233 109.76 581.545C109.038 582.846 108 583.84 106.644 584.529C105.3 585.218 103.687 585.562 101.807 585.562C98.9532 585.562 96.7612 584.792 95.2307 583.25C93.7002 581.698 92.9349 579.517 92.9349 576.707V561.259H94.6076V576.707C94.6076 579.112 95.2307 580.943 96.477 582.201C97.7342 583.447 99.5381 584.07 101.889 584.07C103.43 584.07 104.742 583.797 105.824 583.25C106.907 582.693 107.732 581.884 108.3 580.823C108.869 579.752 109.153 578.456 109.153 576.937V561.259H110.842ZM130.553 579.052C130.553 580.484 130.193 581.687 129.471 582.66C128.75 583.622 127.771 584.349 126.536 584.841C125.3 585.322 123.901 585.562 122.338 585.562C121.365 585.562 120.479 585.513 119.681 585.415C118.894 585.327 118.178 585.207 117.533 585.054C116.899 584.901 116.319 584.726 115.795 584.529V582.84C116.647 583.168 117.631 583.458 118.746 583.709C119.872 583.95 121.097 584.07 122.42 584.07C123.666 584.07 124.77 583.89 125.732 583.529C126.705 583.168 127.471 582.622 128.028 581.889C128.586 581.157 128.864 580.233 128.864 579.118C128.864 578.134 128.629 577.33 128.159 576.707C127.7 576.073 127.006 575.532 126.077 575.084C125.147 574.624 123.978 574.16 122.567 573.69C121.583 573.351 120.687 572.995 119.878 572.624C119.08 572.241 118.397 571.804 117.828 571.312C117.26 570.809 116.822 570.208 116.516 569.508C116.221 568.797 116.073 567.961 116.073 566.999C116.073 565.676 116.407 564.567 117.074 563.67C117.752 562.763 118.664 562.079 119.812 561.62C120.971 561.15 122.272 560.915 123.715 560.915C124.863 560.915 125.951 561.024 126.979 561.243C128.017 561.451 129.017 561.768 129.98 562.194L129.389 563.654C128.427 563.238 127.465 562.932 126.503 562.735C125.541 562.539 124.59 562.44 123.65 562.44C122.524 562.44 121.518 562.61 120.632 562.949C119.758 563.277 119.063 563.774 118.55 564.441C118.036 565.108 117.779 565.95 117.779 566.966C117.779 568.016 118.014 568.863 118.484 569.508C118.965 570.153 119.643 570.689 120.517 571.115C121.403 571.541 122.447 571.957 123.65 572.361C125.071 572.842 126.295 573.351 127.323 573.886C128.351 574.411 129.143 575.078 129.701 575.887C130.269 576.696 130.553 577.751 130.553 579.052ZM153.922 573.017C153.922 575.696 153.446 577.942 152.495 579.757C151.555 581.572 150.155 582.939 148.297 583.857C146.449 584.775 144.159 585.234 141.426 585.234H135.686V561.259H142.18C144.738 561.259 146.887 561.708 148.625 562.604C150.363 563.501 151.68 564.823 152.577 566.573C153.473 568.311 153.922 570.459 153.922 573.017ZM152.151 573.083C152.151 570.798 151.779 568.89 151.035 567.36C150.292 565.829 149.155 564.681 147.625 563.916C146.094 563.14 144.153 562.752 141.803 562.752H137.375V583.742H141.344C144.962 583.742 147.668 582.857 149.461 581.086C151.254 579.304 152.151 576.636 152.151 573.083ZM155.578 591.269C154.988 591.269 154.479 591.231 154.053 591.154C153.626 591.078 153.271 590.979 152.987 590.859V589.318C153.304 589.438 153.687 589.536 154.135 589.613C154.583 589.689 155.053 589.728 155.545 589.728C156.431 589.728 157.158 589.553 157.726 589.203C158.295 588.853 158.716 588.334 158.989 587.645C159.262 586.956 159.399 586.104 159.399 585.087V561.259H161.088V585.054C161.088 586.322 160.886 587.421 160.481 588.35C160.088 589.29 159.486 590.012 158.677 590.515C157.868 591.018 156.835 591.269 155.578 591.269ZM173.584 561.259C176.437 561.259 178.574 561.806 179.996 562.899C181.417 563.993 182.127 565.693 182.127 567.999C182.127 569.18 181.936 570.23 181.553 571.148C181.182 572.055 180.619 572.821 179.864 573.444C179.11 574.067 178.164 574.537 177.027 574.854C175.901 575.171 174.584 575.33 173.075 575.33H169.386V585.234H167.697V561.259H173.584ZM173.403 562.752H169.386V573.837H172.911C174.464 573.837 175.797 573.662 176.913 573.313C178.028 572.952 178.886 572.35 179.487 571.509C180.088 570.667 180.389 569.519 180.389 568.065C180.389 566.217 179.821 564.873 178.684 564.031C177.547 563.178 175.787 562.752 173.403 562.752ZM192.836 574.346L199.838 561.259H201.691L193.705 575.969V585.234H192.016V576.1L183.964 561.259H185.833L192.836 574.346Z" fill="white"/>
<rect x="857.525" y="45.5254" width="269.799" height="94.0381" rx="47.0191" fill="#005645"/>
<path d="M930.185 81.445H936.761C939.723 81.445 941.888 81.9097 943.255 82.8389C944.632 83.7682 945.321 85.2495 945.321 87.283C945.321 88.2013 945.14 89.0376 944.78 89.792C944.43 90.5463 943.905 91.1804 943.205 91.6942C942.517 92.1971 941.664 92.5415 940.647 92.7273V92.8421C941.861 93.028 942.861 93.3669 943.648 93.8588C944.446 94.3399 945.037 94.9794 945.419 95.7775C945.813 96.5646 946.01 97.5048 946.01 98.5981C946.01 100.172 945.649 101.462 944.927 102.468C944.217 103.474 943.227 104.217 941.959 104.698C940.691 105.179 939.226 105.42 937.564 105.42H930.185V81.445ZM931.874 92.1042H937.187C939.439 92.1042 941.068 91.7106 942.074 90.9235C943.08 90.1363 943.583 88.972 943.583 87.4306C943.583 85.8344 943.041 84.6865 941.959 83.9868C940.877 83.2872 939.144 82.9373 936.761 82.9373H931.874V92.1042ZM931.874 93.5801V103.928H937.515C939.734 103.928 941.407 103.479 942.533 102.583C943.659 101.676 944.222 100.325 944.222 98.5325C944.222 97.3518 943.96 96.4006 943.435 95.6791C942.91 94.9466 942.123 94.4164 941.074 94.0884C940.035 93.7495 938.739 93.5801 937.187 93.5801H931.874ZM957.505 105.42H955.8V82.9701H948.027V81.445H965.278V82.9701H957.505V105.42ZM979.036 82.6257C977.506 82.6257 976.139 82.8881 974.937 83.4129C973.734 83.9267 972.718 84.6592 971.887 85.6103C971.056 86.5614 970.422 87.6984 969.984 89.0212C969.547 90.3331 969.328 91.7817 969.328 93.3669C969.328 95.5534 969.673 97.4666 970.362 99.1064C971.05 100.735 972.083 101.998 973.461 102.895C974.849 103.791 976.577 104.239 978.643 104.239C979.845 104.239 980.939 104.152 981.923 103.977C982.907 103.791 983.819 103.556 984.661 103.272V104.748C983.863 105.043 982.961 105.283 981.955 105.469C980.961 105.655 979.802 105.748 978.479 105.748C976.085 105.748 974.073 105.234 972.444 104.206C970.826 103.179 969.607 101.736 968.787 99.8772C967.967 98.0186 967.557 95.8486 967.557 93.3669C967.557 91.5849 967.814 89.9505 968.328 88.4637C968.842 86.9659 969.591 85.6704 970.575 84.5772C971.57 83.473 972.778 82.6203 974.199 82.019C975.62 81.4068 977.238 81.1007 979.053 81.1007C980.201 81.1007 981.294 81.2154 982.333 81.445C983.382 81.6637 984.366 81.9862 985.284 82.4126L984.628 83.8884C983.743 83.4511 982.836 83.1341 981.906 82.9373C980.977 82.7296 980.02 82.6257 979.036 82.6257ZM1007.37 81.445V96.9582C1007.37 98.8276 1007.01 100.418 1006.29 101.73C1005.57 103.031 1004.53 104.026 1003.18 104.715C1001.83 105.404 1000.22 105.748 998.338 105.748C995.484 105.748 993.292 104.977 991.762 103.436C990.231 101.883 989.466 99.7022 989.466 96.8926V81.445H991.139V96.8926C991.139 99.2977 991.762 101.129 993.008 102.386C994.265 103.632 996.069 104.256 998.42 104.256C999.961 104.256 1001.27 103.982 1002.36 103.436C1003.44 102.878 1004.26 102.069 1004.83 101.009C1005.4 99.9373 1005.68 98.6418 1005.68 97.1222V81.445H1007.37ZM1027.08 99.2376C1027.08 100.67 1026.72 101.872 1026 102.845C1025.28 103.807 1024.3 104.534 1023.07 105.026C1021.83 105.507 1020.43 105.748 1018.87 105.748C1017.9 105.748 1017.01 105.699 1016.21 105.6C1015.43 105.513 1014.71 105.393 1014.06 105.24C1013.43 105.086 1012.85 104.912 1012.33 104.715V103.026C1013.18 103.354 1014.16 103.643 1015.28 103.895C1016.4 104.135 1017.63 104.256 1018.95 104.256C1020.2 104.256 1021.3 104.075 1022.26 103.714C1023.24 103.354 1024 102.807 1024.56 102.075C1025.12 101.342 1025.4 100.418 1025.4 99.3032C1025.4 98.3193 1025.16 97.5158 1024.69 96.8926C1024.23 96.2585 1023.54 95.7174 1022.61 95.2691C1021.68 94.81 1020.51 94.3453 1019.1 93.8752C1018.11 93.5363 1017.22 93.181 1016.41 92.8093C1015.61 92.4267 1014.93 91.9894 1014.36 91.4974C1013.79 90.9945 1013.35 90.3933 1013.05 89.6936C1012.75 88.983 1012.6 88.1466 1012.6 87.1846C1012.6 85.8617 1012.94 84.7521 1013.6 83.8556C1014.28 82.9482 1015.2 82.265 1016.34 81.8058C1017.5 81.3357 1018.8 81.1007 1020.25 81.1007C1021.39 81.1007 1022.48 81.21 1023.51 81.4286C1024.55 81.6363 1025.55 81.9534 1026.51 82.3798L1025.92 83.8392C1024.96 83.4238 1024 83.1177 1023.03 82.9209C1022.07 82.7241 1021.12 82.6257 1020.18 82.6257C1019.05 82.6257 1018.05 82.7952 1017.16 83.1341C1016.29 83.4621 1015.59 83.9595 1015.08 84.6264C1014.57 85.2933 1014.31 86.1351 1014.31 87.1518C1014.31 88.2013 1014.55 89.0486 1015.02 89.6936C1015.5 90.3386 1016.17 90.8743 1017.05 91.3006C1017.93 91.727 1018.98 92.1424 1020.18 92.5469C1021.6 93.028 1022.83 93.5363 1023.85 94.072C1024.88 94.5968 1025.67 95.2637 1026.23 96.0727C1026.8 96.8817 1027.08 97.9367 1027.08 99.2376ZM1050.45 93.2029C1050.45 95.8813 1049.98 98.128 1049.03 99.9428C1048.09 101.758 1046.69 103.124 1044.83 104.042C1042.98 104.961 1040.69 105.42 1037.96 105.42H1032.22V81.445H1038.71C1041.27 81.445 1043.42 81.8933 1045.16 82.7897C1046.89 83.6862 1048.21 85.009 1049.11 86.7582C1050 88.4965 1050.45 90.6447 1050.45 93.2029ZM1048.68 93.2685C1048.68 90.9836 1048.31 89.0759 1047.57 87.5453C1046.82 86.0148 1045.69 84.8669 1044.16 84.1016C1042.63 83.3254 1040.68 82.9373 1038.33 82.9373H1033.91V103.928H1037.87C1041.49 103.928 1044.2 103.042 1045.99 101.271C1047.79 99.4891 1048.68 96.8215 1048.68 93.2685Z" fill="white"/>
<rect y="105.232" width="269.799" height="94.0381" rx="47.0191" fill="#525252"/>
<path d="M85.7629 165.125H72.6604V141.15H85.7629V142.675H74.3494V151.76H85.1234V153.285H74.3494V163.6H85.7629V165.125ZM108.885 141.15V156.663C108.885 158.533 108.524 160.123 107.803 161.435C107.081 162.736 106.043 163.731 104.687 164.42C103.342 165.109 101.73 165.453 99.8494 165.453C96.996 165.453 94.8041 164.682 93.2735 163.141C91.743 161.588 90.9777 159.407 90.9777 156.598V141.15H92.6504V156.598C92.6504 159.003 93.2735 160.834 94.5198 162.091C95.7771 163.338 97.5809 163.961 99.9314 163.961C101.473 163.961 102.785 163.687 103.867 163.141C104.949 162.583 105.775 161.774 106.343 160.714C106.912 159.642 107.196 158.347 107.196 156.827V141.15H108.885ZM121.217 141.15C123.119 141.15 124.704 141.358 125.973 141.773C127.252 142.189 128.214 142.872 128.859 143.823C129.504 144.774 129.826 146.059 129.826 147.677C129.826 148.89 129.602 149.934 129.154 150.809C128.717 151.673 128.11 152.383 127.334 152.941C126.557 153.498 125.661 153.925 124.644 154.22L131.22 165.125H129.219L123.037 154.695H117.084V165.125H115.395V141.15H121.217ZM121.053 142.642H117.084V153.203H121.856C123.813 153.203 125.338 152.733 126.432 151.793C127.536 150.853 128.088 149.503 128.088 147.742C128.088 145.807 127.509 144.474 126.35 143.741C125.191 143.009 123.425 142.642 121.053 142.642ZM153.03 141.15V156.663C153.03 158.533 152.67 160.123 151.948 161.435C151.227 162.736 150.188 163.731 148.832 164.42C147.488 165.109 145.875 165.453 143.995 165.453C141.141 165.453 138.949 164.682 137.419 163.141C135.888 161.588 135.123 159.407 135.123 156.598V141.15H136.796V156.598C136.796 159.003 137.419 160.834 138.665 162.091C139.922 163.338 141.726 163.961 144.077 163.961C145.618 163.961 146.93 163.687 148.012 163.141C149.095 162.583 149.92 161.774 150.489 160.714C151.057 159.642 151.341 158.347 151.341 156.827V141.15H153.03ZM172.742 158.943C172.742 160.375 172.381 161.577 171.659 162.55C170.938 163.512 169.959 164.239 168.724 164.731C167.489 165.212 166.089 165.453 164.526 165.453C163.553 165.453 162.667 165.404 161.869 165.305C161.082 165.218 160.366 165.098 159.721 164.945C159.087 164.792 158.508 164.617 157.983 164.42V162.731C158.835 163.059 159.819 163.348 160.935 163.6C162.061 163.84 163.285 163.961 164.608 163.961C165.854 163.961 166.958 163.78 167.92 163.42C168.893 163.059 169.659 162.512 170.216 161.78C170.774 161.047 171.053 160.123 171.053 159.008C171.053 158.024 170.817 157.221 170.347 156.598C169.888 155.964 169.194 155.422 168.265 154.974C167.335 154.515 166.166 154.05 164.755 153.58C163.772 153.241 162.875 152.886 162.066 152.514C161.268 152.132 160.585 151.694 160.016 151.203C159.448 150.7 159.01 150.098 158.704 149.399C158.409 148.688 158.262 147.852 158.262 146.89C158.262 145.567 158.595 144.457 159.262 143.561C159.94 142.653 160.853 141.97 162 141.511C163.159 141.041 164.46 140.806 165.903 140.806C167.051 140.806 168.139 140.915 169.167 141.134C170.205 141.341 171.206 141.658 172.168 142.085L171.577 143.544C170.615 143.129 169.653 142.823 168.691 142.626C167.729 142.429 166.778 142.331 165.838 142.331C164.712 142.331 163.706 142.5 162.82 142.839C161.946 143.167 161.252 143.665 160.738 144.331C160.224 144.998 159.967 145.84 159.967 146.857C159.967 147.906 160.202 148.754 160.672 149.399C161.153 150.044 161.831 150.579 162.706 151.006C163.591 151.432 164.635 151.848 165.838 152.252C167.259 152.733 168.483 153.241 169.511 153.777C170.539 154.302 171.331 154.969 171.889 155.778C172.457 156.587 172.742 157.642 172.742 158.943ZM196.11 152.908C196.11 155.586 195.634 157.833 194.683 159.648C193.743 161.463 192.343 162.829 190.485 163.748C188.637 164.666 186.347 165.125 183.614 165.125H177.874V141.15H184.368C186.926 141.15 189.075 141.598 190.813 142.495C192.551 143.391 193.869 144.714 194.765 146.463C195.661 148.202 196.11 150.35 196.11 152.908ZM194.339 152.974C194.339 150.689 193.967 148.781 193.224 147.25C192.48 145.72 191.343 144.572 189.813 143.807C188.282 143.03 186.342 142.642 183.991 142.642H179.563V163.633H183.532C187.151 163.633 189.856 162.747 191.649 160.976C193.442 159.194 194.339 156.527 194.339 152.974Z" fill="white"/>
<rect x="923.201" y="547.055" width="269.799" height="76.1249" rx="38.0625" fill="#525252"/>
<path d="M1013.31 597.922H1011.59L997.419 576.718H997.337C997.359 577.309 997.376 577.91 997.387 578.522C997.408 579.124 997.425 579.747 997.436 580.392C997.458 581.026 997.469 581.682 997.469 582.36V597.922H995.862V573.947H997.6L1011.72 595.085H1011.8C1011.79 594.604 1011.77 594.046 1011.75 593.412C1011.74 592.778 1011.72 592.128 1011.7 591.461C1011.69 590.794 1011.69 590.165 1011.69 589.575V573.947H1013.31V597.922ZM1035.1 597.922L1031.84 589.444H1021.77L1018.44 597.922H1016.72L1026.15 573.865H1027.69L1036.87 597.922H1035.1ZM1031.3 587.919L1027.99 578.932C1027.9 578.703 1027.79 578.407 1027.66 578.047C1027.54 577.686 1027.41 577.303 1027.27 576.899C1027.13 576.494 1027 576.112 1026.87 575.751C1026.76 576.133 1026.64 576.516 1026.51 576.899C1026.38 577.281 1026.25 577.653 1026.13 578.014C1026.01 578.364 1025.9 578.681 1025.79 578.965L1022.35 587.919H1031.3ZM1053.47 591.74C1053.47 593.172 1053.11 594.374 1052.39 595.347C1051.67 596.309 1050.69 597.036 1049.45 597.528C1048.22 598.009 1046.82 598.25 1045.25 598.25C1044.28 598.25 1043.4 598.201 1042.6 598.102C1041.81 598.015 1041.09 597.895 1040.45 597.741C1039.82 597.588 1039.24 597.414 1038.71 597.217V595.528C1039.56 595.856 1040.55 596.145 1041.66 596.397C1042.79 596.637 1044.01 596.758 1045.34 596.758C1046.58 596.758 1047.69 596.577 1048.65 596.216C1049.62 595.856 1050.39 595.309 1050.94 594.577C1051.5 593.844 1051.78 592.92 1051.78 591.805C1051.78 590.821 1051.55 590.018 1051.08 589.395C1050.62 588.76 1049.92 588.219 1048.99 587.771C1048.06 587.312 1046.89 586.847 1045.48 586.377C1044.5 586.038 1043.6 585.683 1042.79 585.311C1042 584.929 1041.31 584.491 1040.74 583.999C1040.18 583.496 1039.74 582.895 1039.43 582.196C1039.14 581.485 1038.99 580.649 1038.99 579.687C1038.99 578.364 1039.32 577.254 1039.99 576.358C1040.67 575.45 1041.58 574.767 1042.73 574.308C1043.89 573.838 1045.19 573.603 1046.63 573.603C1047.78 573.603 1048.87 573.712 1049.9 573.931C1050.93 574.138 1051.93 574.455 1052.9 574.882L1052.31 576.341C1051.34 575.926 1050.38 575.62 1049.42 575.423C1048.46 575.226 1047.51 575.128 1046.57 575.128C1045.44 575.128 1044.43 575.297 1043.55 575.636C1042.67 575.964 1041.98 576.461 1041.47 577.128C1040.95 577.795 1040.7 578.637 1040.7 579.654C1040.7 580.703 1040.93 581.551 1041.4 582.196C1041.88 582.841 1042.56 583.376 1043.43 583.803C1044.32 584.229 1045.36 584.644 1046.57 585.049C1047.99 585.53 1049.21 586.038 1050.24 586.574C1051.27 587.099 1052.06 587.766 1052.62 588.575C1053.19 589.384 1053.47 590.439 1053.47 591.74ZM1066.41 597.922H1064.79V579.818C1064.79 579.173 1064.79 578.61 1064.79 578.129C1064.79 577.637 1064.79 577.199 1064.8 576.817C1064.81 576.423 1064.83 576.051 1064.85 575.702C1064.56 575.997 1064.27 576.254 1064 576.472C1063.72 576.691 1063.37 576.97 1062.95 577.309L1059.41 579.998L1058.49 578.817L1065.01 573.947H1066.41V597.922ZM1091.63 585.869C1091.63 587.869 1091.48 589.641 1091.17 591.182C1090.86 592.723 1090.4 594.019 1089.78 595.069C1089.15 596.118 1088.36 596.911 1087.4 597.446C1086.44 597.982 1085.3 598.25 1083.99 598.25C1082.33 598.25 1080.93 597.785 1079.79 596.856C1078.65 595.927 1077.79 594.544 1077.2 592.707C1076.62 590.87 1076.33 588.591 1076.33 585.869C1076.33 583.442 1076.58 581.305 1077.07 579.457C1077.57 577.609 1078.39 576.166 1079.51 575.128C1080.64 574.089 1082.14 573.57 1084 573.57C1085.86 573.57 1087.35 574.078 1088.46 575.095C1089.59 576.112 1090.4 577.544 1090.89 579.391C1091.38 581.228 1091.63 583.387 1091.63 585.869ZM1078 585.869C1078 588.329 1078.22 590.368 1078.64 591.986C1079.07 593.593 1079.72 594.795 1080.61 595.593C1081.5 596.391 1082.62 596.79 1083.99 596.79C1085.4 596.79 1086.54 596.391 1087.42 595.593C1088.29 594.795 1088.93 593.587 1089.33 591.969C1089.75 590.351 1089.96 588.318 1089.96 585.869C1089.96 583.617 1089.78 581.682 1089.42 580.064C1089.07 578.446 1088.46 577.205 1087.6 576.341C1086.73 575.478 1085.54 575.046 1084 575.046C1082.51 575.046 1081.32 575.488 1080.45 576.374C1079.57 577.26 1078.94 578.511 1078.56 580.129C1078.19 581.747 1078 583.66 1078 585.869ZM1110.82 585.869C1110.82 587.869 1110.66 589.641 1110.36 591.182C1110.05 592.723 1109.59 594.019 1108.96 595.069C1108.34 596.118 1107.55 596.911 1106.59 597.446C1105.62 597.982 1104.49 598.25 1103.17 598.25C1101.51 598.25 1100.11 597.785 1098.98 596.856C1097.84 595.927 1096.98 594.544 1096.39 592.707C1095.81 590.87 1095.52 588.591 1095.52 585.869C1095.52 583.442 1095.76 581.305 1096.25 579.457C1096.76 577.609 1097.57 576.166 1098.7 575.128C1099.82 574.089 1101.32 573.57 1103.19 573.57C1105.05 573.57 1106.54 574.078 1107.65 575.095C1108.78 576.112 1109.59 577.544 1110.08 579.391C1110.57 581.228 1110.82 583.387 1110.82 585.869ZM1097.19 585.869C1097.19 588.329 1097.4 590.368 1097.83 591.986C1098.25 593.593 1098.91 594.795 1099.8 595.593C1100.68 596.391 1101.81 596.79 1103.17 596.79C1104.58 596.79 1105.73 596.391 1106.6 595.593C1107.48 594.795 1108.12 593.587 1108.52 591.969C1108.94 590.351 1109.14 588.318 1109.14 585.869C1109.14 583.617 1108.96 581.682 1108.6 580.064C1108.25 578.446 1107.65 577.205 1106.78 576.341C1105.92 575.478 1104.72 575.046 1103.19 575.046C1101.69 575.046 1100.51 575.488 1099.63 576.374C1098.76 577.26 1098.13 578.511 1097.75 580.129C1097.37 581.747 1097.19 583.66 1097.19 585.869Z" fill="white"/>
<path d="M472.283 376.488C472.283 374.039 472.458 371.619 472.807 369.228C473.177 366.818 473.808 364.554 474.702 362.436C475.596 360.298 476.85 358.413 478.463 356.78C480.076 355.128 482.127 353.836 484.614 352.903C487.102 351.95 490.115 351.474 493.652 351.474C494.488 351.474 495.459 351.513 496.567 351.591C497.695 351.649 498.627 351.756 499.366 351.911V359.112C498.589 358.937 497.753 358.801 496.859 358.704C495.984 358.588 495.11 358.529 494.235 358.529C490.698 358.529 487.957 359.093 486.014 360.22C484.09 361.347 482.729 362.912 481.932 364.914C481.155 366.896 480.698 369.209 480.562 371.852H480.941C481.485 370.9 482.166 370.054 482.982 369.316C483.818 368.577 484.828 367.994 486.014 367.567C487.199 367.12 488.589 366.896 490.183 366.896C492.67 366.896 494.828 367.431 496.655 368.5C498.482 369.549 499.891 371.075 500.882 373.077C501.873 375.079 502.369 377.518 502.369 380.394C502.369 383.465 501.776 386.108 500.59 388.324C499.405 390.539 497.724 392.24 495.547 393.426C493.39 394.592 490.824 395.175 487.85 395.175C485.674 395.175 483.643 394.806 481.757 394.067C479.872 393.309 478.22 392.162 476.801 390.627C475.383 389.092 474.275 387.158 473.478 384.825C472.681 382.474 472.283 379.694 472.283 376.488ZM487.676 387.974C489.444 387.974 490.882 387.372 491.99 386.167C493.098 384.962 493.652 383.076 493.652 380.511C493.652 378.431 493.166 376.799 492.194 375.613C491.242 374.408 489.794 373.806 487.85 373.806C486.529 373.806 485.363 374.107 484.352 374.709C483.361 375.292 482.593 376.041 482.049 376.954C481.505 377.848 481.233 378.771 481.233 379.724C481.233 380.715 481.369 381.696 481.641 382.668C481.913 383.64 482.321 384.524 482.865 385.321C483.409 386.118 484.08 386.759 484.877 387.245C485.693 387.731 486.626 387.974 487.676 387.974ZM536.303 373.281C536.303 376.721 536.031 379.792 535.487 382.493C534.962 385.195 534.107 387.488 532.921 389.373C531.755 391.259 530.22 392.697 528.315 393.688C526.41 394.679 524.098 395.175 521.377 395.175C517.956 395.175 515.148 394.31 512.951 392.58C510.755 390.831 509.132 388.324 508.083 385.059C507.033 381.774 506.509 377.848 506.509 373.281C506.509 368.675 506.985 364.739 507.937 361.474C508.909 358.189 510.483 355.672 512.66 353.923C514.837 352.174 517.742 351.299 521.377 351.299C524.778 351.299 527.577 352.174 529.773 353.923C531.988 355.653 533.631 358.16 534.7 361.445C535.769 364.71 536.303 368.655 536.303 373.281ZM515.459 373.281C515.459 376.527 515.633 379.238 515.983 381.415C516.353 383.572 516.965 385.195 517.82 386.283C518.675 387.372 519.861 387.916 521.377 387.916C522.873 387.916 524.049 387.381 524.904 386.312C525.779 385.224 526.401 383.601 526.77 381.444C527.139 379.267 527.324 376.546 527.324 373.281C527.324 370.035 527.139 367.324 526.77 365.147C526.401 362.97 525.779 361.338 524.904 360.249C524.049 359.141 522.873 358.588 521.377 358.588C519.861 358.588 518.675 359.141 517.82 360.249C516.965 361.338 516.353 362.97 515.983 365.147C515.633 367.324 515.459 370.035 515.459 373.281ZM550.413 351.358C553.756 351.358 556.293 352.524 558.022 354.856C559.752 357.188 560.617 360.463 560.617 364.681C560.617 368.898 559.801 372.192 558.168 374.564C556.535 376.935 553.951 378.12 550.413 378.12C547.129 378.12 544.631 376.935 542.921 374.564C541.211 372.192 540.355 368.898 540.355 364.681C540.355 360.463 541.152 357.188 542.746 354.856C544.359 352.524 546.915 351.358 550.413 351.358ZM550.472 357.451C549.519 357.451 548.82 358.053 548.373 359.258C547.926 360.463 547.702 362.29 547.702 364.739C547.702 367.188 547.926 369.024 548.373 370.249C548.82 371.473 549.519 372.085 550.472 372.085C551.424 372.085 552.124 371.483 552.571 370.278C553.037 369.054 553.27 367.207 553.27 364.739C553.27 362.29 553.037 360.463 552.571 359.258C552.124 358.053 551.424 357.451 550.472 357.451ZM580.674 351.97L557.031 394.592H550.034L573.678 351.97H580.674ZM580.266 368.383C583.609 368.383 586.145 369.549 587.875 371.881C589.605 374.214 590.47 377.489 590.47 381.706C590.47 385.904 589.654 389.189 588.021 391.56C586.388 393.931 583.803 395.117 580.266 395.117C576.982 395.117 574.484 393.931 572.774 391.56C571.064 389.189 570.208 385.904 570.208 381.706C570.208 377.489 571.005 374.214 572.599 371.881C574.212 369.549 576.768 368.383 580.266 368.383ZM580.325 374.476C579.372 374.476 578.672 375.079 578.225 376.284C577.778 377.489 577.555 379.316 577.555 381.764C577.555 384.213 577.778 386.05 578.225 387.274C578.672 388.499 579.372 389.111 580.325 389.111C581.277 389.111 581.977 388.508 582.424 387.303C582.89 386.079 583.123 384.233 583.123 381.764C583.123 379.316 582.89 377.489 582.424 376.284C581.977 375.079 581.277 374.476 580.325 374.476ZM613.209 394.592V351.97H622.247V387.129H639.535V394.592H613.209ZM675.889 378.237C675.889 380.958 675.52 383.368 674.781 385.467C674.062 387.566 673.003 389.344 671.603 390.802C670.223 392.24 668.552 393.328 666.589 394.067C664.645 394.806 662.449 395.175 660 395.175C657.707 395.175 655.598 394.806 653.674 394.067C651.769 393.328 650.108 392.24 648.689 390.802C647.289 389.344 646.201 387.566 645.424 385.467C644.666 383.368 644.287 380.958 644.287 378.237C644.287 374.622 644.928 371.561 646.211 369.054C647.494 366.546 649.321 364.642 651.692 363.34C654.063 362.037 656.891 361.386 660.175 361.386C663.227 361.386 665.928 362.037 668.28 363.34C670.651 364.642 672.507 366.546 673.848 369.054C675.209 371.561 675.889 374.622 675.889 378.237ZM653.353 378.237C653.353 380.375 653.587 382.173 654.053 383.63C654.519 385.088 655.248 386.186 656.24 386.924C657.231 387.663 658.523 388.032 660.117 388.032C661.691 388.032 662.964 387.663 663.936 386.924C664.927 386.186 665.646 385.088 666.093 383.63C666.56 382.173 666.793 380.375 666.793 378.237C666.793 376.079 666.56 374.291 666.093 372.873C665.646 371.434 664.927 370.356 663.936 369.637C662.945 368.918 661.652 368.558 660.059 368.558C657.707 368.558 655.997 369.365 654.928 370.978C653.878 372.591 653.353 375.011 653.353 378.237ZM701.748 361.386C705.227 361.386 708.025 362.339 710.144 364.243C712.262 366.129 713.322 369.16 713.322 373.339V394.592H704.43V375.555C704.43 373.222 704.002 371.464 703.147 370.278C702.311 369.092 700.99 368.5 699.182 368.5C696.461 368.5 694.605 369.423 693.614 371.269C692.623 373.116 692.127 375.778 692.127 379.257V394.592H683.235V361.998H690.028L691.223 366.167H691.719C692.419 365.04 693.284 364.127 694.314 363.427C695.363 362.727 696.52 362.212 697.783 361.882C699.066 361.551 700.387 361.386 701.748 361.386ZM732.009 408.935C727.461 408.935 723.982 408.138 721.572 406.545C719.181 404.97 717.986 402.755 717.986 399.898C717.986 397.935 718.598 396.292 719.823 394.971C721.047 393.649 722.845 392.707 725.216 392.143C724.303 391.754 723.506 391.123 722.826 390.248C722.145 389.354 721.805 388.411 721.805 387.42C721.805 386.176 722.165 385.146 722.884 384.33C723.603 383.494 724.643 382.678 726.003 381.881C724.293 381.142 722.932 379.957 721.922 378.324C720.931 376.692 720.435 374.768 720.435 372.552C720.435 370.181 720.95 368.169 721.98 366.517C723.03 364.846 724.546 363.573 726.528 362.698C728.53 361.824 730.959 361.386 733.816 361.386C734.419 361.386 735.118 361.425 735.915 361.503C736.712 361.581 737.441 361.668 738.102 361.765C738.782 361.862 739.239 361.94 739.472 361.998H750.842V366.517L745.74 367.829C746.206 368.548 746.556 369.316 746.789 370.132C747.023 370.949 747.139 371.813 747.139 372.727C747.139 376.225 745.915 378.956 743.466 380.919C741.037 382.862 737.655 383.834 733.321 383.834C732.291 383.776 731.319 383.698 730.405 383.601C729.958 383.951 729.618 384.32 729.385 384.709C729.152 385.098 729.035 385.506 729.035 385.933C729.035 386.361 729.21 386.72 729.56 387.012C729.929 387.284 730.473 387.498 731.193 387.653C731.931 387.789 732.845 387.857 733.933 387.857H739.472C743.048 387.857 745.769 388.625 747.635 390.161C749.52 391.696 750.463 393.95 750.463 396.924C750.463 400.733 748.869 403.688 745.682 405.787C742.514 407.886 737.956 408.935 732.009 408.935ZM732.388 403.134C734.506 403.134 736.323 402.93 737.839 402.521C739.375 402.133 740.551 401.569 741.367 400.831C742.183 400.111 742.591 399.247 742.591 398.236C742.591 397.42 742.348 396.769 741.863 396.283C741.396 395.816 740.677 395.486 739.705 395.291C738.753 395.097 737.528 395 736.032 395H731.426C730.337 395 729.356 395.175 728.481 395.525C727.626 395.875 726.946 396.36 726.441 396.982C725.935 397.624 725.683 398.362 725.683 399.198C725.683 400.422 726.266 401.385 727.432 402.084C728.617 402.784 730.269 403.134 732.388 403.134ZM733.816 378.412C735.488 378.412 736.712 377.897 737.49 376.867C738.267 375.837 738.656 374.437 738.656 372.669C738.656 370.706 738.248 369.238 737.431 368.266C736.634 367.275 735.429 366.78 733.816 366.78C732.184 366.78 730.959 367.275 730.143 368.266C729.327 369.238 728.919 370.706 728.919 372.669C728.919 374.437 729.317 375.837 730.114 376.867C730.93 377.897 732.164 378.412 733.816 378.412Z" fill="#005645"/>
<path d="M562.789 450.746H549.687V426.771H562.789V428.296H551.376V437.381H562.15V438.906H551.376V449.221H562.789V450.746ZM585.911 426.771V442.284C585.911 444.154 585.551 445.744 584.829 447.056C584.108 448.357 583.069 449.352 581.713 450.041C580.369 450.73 578.756 451.074 576.876 451.074C574.022 451.074 571.83 450.303 570.3 448.762C568.769 447.209 568.004 445.028 568.004 442.219V426.771H569.677V442.219C569.677 444.624 570.3 446.455 571.546 447.712C572.803 448.959 574.607 449.582 576.958 449.582C578.499 449.582 579.811 449.308 580.893 448.762C581.976 448.204 582.801 447.395 583.37 446.335C583.938 445.263 584.222 443.968 584.222 442.448V426.771H585.911ZM598.243 426.771C600.146 426.771 601.731 426.979 602.999 427.394C604.278 427.81 605.24 428.493 605.885 429.444C606.53 430.395 606.853 431.68 606.853 433.298C606.853 434.511 606.628 435.555 606.18 436.43C605.743 437.294 605.136 438.004 604.36 438.562C603.584 439.119 602.687 439.546 601.671 439.841L608.246 450.746H606.246L600.064 440.317H594.111V450.746H592.422V426.771H598.243ZM598.079 428.263H594.111V438.824H598.883C600.84 438.824 602.365 438.354 603.458 437.414C604.562 436.474 605.114 435.124 605.114 433.363C605.114 431.428 604.535 430.095 603.376 429.362C602.217 428.63 600.452 428.263 598.079 428.263ZM630.057 426.771V442.284C630.057 444.154 629.696 445.744 628.974 447.056C628.253 448.357 627.214 449.352 625.859 450.041C624.514 450.73 622.901 451.074 621.021 451.074C618.168 451.074 615.976 450.303 614.445 448.762C612.915 447.209 612.149 445.028 612.149 442.219V426.771H613.822V442.219C613.822 444.624 614.445 446.455 615.691 447.712C616.949 448.959 618.753 449.582 621.103 449.582C622.645 449.582 623.956 449.308 625.039 448.762C626.121 448.204 626.946 447.395 627.515 446.335C628.083 445.263 628.368 443.968 628.368 442.448V426.771H630.057ZM649.768 444.564C649.768 445.996 649.407 447.199 648.686 448.171C647.964 449.134 646.986 449.861 645.75 450.353C644.515 450.834 643.116 451.074 641.552 451.074C640.579 451.074 639.694 451.025 638.896 450.926C638.108 450.839 637.392 450.719 636.747 450.566C636.113 450.413 635.534 450.238 635.009 450.041V448.352C635.862 448.68 636.846 448.97 637.961 449.221C639.087 449.462 640.311 449.582 641.634 449.582C642.881 449.582 643.985 449.401 644.947 449.041C645.92 448.68 646.685 448.133 647.243 447.401C647.8 446.668 648.079 445.744 648.079 444.629C648.079 443.645 647.844 442.842 647.374 442.219C646.915 441.585 646.22 441.044 645.291 440.595C644.362 440.136 643.192 439.672 641.782 439.201C640.798 438.863 639.901 438.507 639.092 438.135C638.294 437.753 637.611 437.316 637.043 436.824C636.474 436.321 636.037 435.719 635.731 435.02C635.435 434.309 635.288 433.473 635.288 432.511C635.288 431.188 635.621 430.078 636.288 429.182C636.966 428.274 637.879 427.591 639.027 427.132C640.186 426.662 641.487 426.427 642.93 426.427C644.078 426.427 645.165 426.536 646.193 426.755C647.232 426.963 648.232 427.28 649.194 427.706L648.604 429.165C647.642 428.75 646.68 428.444 645.717 428.247C644.755 428.05 643.804 427.952 642.864 427.952C641.738 427.952 640.732 428.121 639.847 428.46C638.972 428.788 638.278 429.286 637.764 429.953C637.25 430.619 636.993 431.461 636.993 432.478C636.993 433.527 637.228 434.375 637.699 435.02C638.18 435.665 638.857 436.2 639.732 436.627C640.617 437.053 641.662 437.469 642.864 437.873C644.285 438.354 645.51 438.863 646.537 439.398C647.565 439.923 648.358 440.59 648.915 441.399C649.484 442.208 649.768 443.263 649.768 444.564ZM673.136 438.529C673.136 441.208 672.661 443.454 671.709 445.269C670.769 447.084 669.37 448.45 667.511 449.369C665.664 450.287 663.373 450.746 660.64 450.746H654.901V426.771H661.395C663.953 426.771 666.101 427.219 667.839 428.116C669.578 429.012 670.895 430.335 671.791 432.084C672.688 433.823 673.136 435.971 673.136 438.529ZM671.365 438.595C671.365 436.31 670.993 434.402 670.25 432.872C669.507 431.341 668.37 430.193 666.839 429.428C665.308 428.652 663.368 428.263 661.017 428.263H656.59V449.254H660.558C664.177 449.254 666.883 448.368 668.676 446.597C670.469 444.815 671.365 442.148 671.365 438.595Z" fill="#808080"/>
</svg>
